<svg xmlns="http://www.w3.org/2000/svg" id="LOGO_SEUL" data-name="LOGO SEUL" viewBox="204.25 120.82 441.89 109.14">
  <defs>
    <style>
      .cls-1 {
        fill: #39f2ae;
      }

      .cls-1, .cls-2 {
        stroke-width: 0px;
      }

      .cls-2 {
        fill: #fff;
      }
    </style>
  </defs>
  <path class="cls-2" d="m299.4687,120.8199v47.9716l25.3259-23.4521,22.0991.0845-26.5115,25.6645,27.3205,34.7506h-21.397l-17.4787-23.7026-9.3583,9.0192v14.6834h-17.9708v-85.019h17.9708Z"/>
  <path class="cls-2" d="m360.116,229.7766v-14.1763h23.2364l3.7522-9.7614h-10.216s-20.3381-60.5098-20.3381-60.5098h18.4448l15.8689,47.5355,15.8248-47.5355h17.0266l-20.6323,61.1569c-4.4319,13.5963-8.17,17.2652-11.55,19.3574-2.8825,1.7842-6.1406,2.8583-9.4979,3.3282-4.3078.6029-11.235,1.0662-21.9193.605Z"/>
  <path class="cls-2" d="m452.2196,205.4538c-20.1315-2.6041-18.8253-24.9799-18.8253-24.9799l-.0095-35.2366h18.2093l.0095,32.2108s-1.4851,13.3283,10.832,13.5832c14.5227.3005,14.9426-16.0282,14.9426-16.0282l-.0095-29.7657h18.2093l.0095,60.6016h-18.1284v-13.5056s-5.0219,15.7357-25.2395,13.1205Z"/>
  <path class="cls-2" d="m516.1147,184.3876v-25.165h-10.8657v-8.7059l12.1898-5.1876,7.4433-13.9437h9.2171l.0531,13.9437h17.227l.0017,13.8935h-17.3271v32.2568l15.6244.1002v14.2593h-17.2058c-8.8064,0-16.005-7.0248-16.2203-15.8285l-.1375-5.6228Z"/>
  <path class="cls-2" d="m628.403,135.8168v-10.9531h17.7364v10.9531h-17.7364Zm17.7364,9.6616v60.3605h-17.7364v-60.3605h17.7364Z"/>
  <path class="cls-2" d="m617.8283,183.8384l-.0535-19.7644c-.0008-.2917.0067-.5833.0142-.8749.0719-2.7602-.4609-21.1613-27.43-21.1605-29.982.0007-29.2551,21.5054-29.2551,21.5054h17.4853c.0483-10.0747,11.7698-9.2996,11.7698-9.2996,0,0,10.462-.5813,10.898,5.7154.4359,6.2966-3.0771,6.5428-8.2341,7.4105-8.4004,1.4136-7.5075.5328-21.2632,4.2624-13.7558,3.7294-11.8667,18.8898-11.8667,18.8898,0,0,.9687,15.79,20.6818,15.3055,19.7134-.4842,21.554-15.015,21.554-15.015-.3875,2.325,1.0164,15.0259,1.0164,15.0259h15.5962c-.9687-2.3053-.9131-22.0005-.9131-22.0005Zm-27.324,9.2511s-10.1715,3.0029-12.8355-4.4076c-1.7315-4.817,1.5916-7.6284,4.1298-9.0063,1.1792-.6402,2.4666-1.0499,3.7843-1.3026,3.5305-.6768,13.3134-2.7651,15.7226-5.5296,0,0,1.7921,16.904-10.8011,20.246Z"/>
  <path class="cls-1" d="m243.9234,120.8658h0c3.4393,0,5.7187,3.5669,4.2739,6.688l-34.954,75.5081c-.7709,1.6653-2.4388,2.7311-4.2739,2.7311h0c-3.4393,0-5.7187-3.5669-4.2739-6.688l34.954-75.5081c.7709-1.6653,2.4388-2.7311,4.2739-2.7311Z"/>
</svg>